<svg width="436" height="429" viewBox="0 0 436 429" fill="none" xmlns="http://www.w3.org/2000/svg">
<path d="M310.164 375.049C299.491 380.613 244.2 403.346 232.429 409.483C220.658 415.62 214.119 415.561 204.82 411.116C195.521 406.67 136.682 382.903 126.083 377.837C120.786 375.306 118 373.168 118 371.149V350.934C118 350.934 194.602 334.258 206.968 329.821C219.334 325.384 223.624 325.224 234.148 329.079C244.673 332.935 307.599 344.288 318 348.098L317.995 368.027C317.997 370.026 315.597 372.218 310.164 375.049Z" fill="#912626"/>
<path d="M310.16 354.953C299.487 360.514 244.198 383.248 232.427 389.384C220.657 395.523 214.118 395.463 204.819 391.017C195.52 386.575 136.683 362.804 126.085 357.741C115.487 352.674 115.265 349.188 125.676 345.111C136.087 341.033 194.601 318.076 206.969 313.639C219.334 309.204 223.624 309.042 234.147 312.898C244.672 316.753 299.631 338.629 310.03 342.438C320.433 346.251 320.833 349.391 310.16 354.953Z" fill="#C6302B"/>
<path d="M310.164 342.339C299.491 347.903 244.2 370.636 232.429 376.775C220.658 382.91 214.119 382.851 204.82 378.405C195.52 373.962 136.682 350.193 126.083 345.127C120.786 342.595 118 340.461 118 338.441V318.223C118 318.223 194.602 301.548 206.968 297.112C219.334 292.675 223.624 292.514 234.148 296.37C244.673 300.225 307.6 311.576 318 315.386L317.995 335.318C317.997 337.316 315.597 339.508 310.164 342.339Z" fill="#912626"/>
<path d="M310.16 322.243C299.487 327.806 244.198 350.538 232.427 356.677C220.657 362.813 214.118 362.752 204.819 358.307C195.52 353.865 136.683 330.095 126.085 325.031C115.487 319.966 115.265 316.478 125.676 312.4C136.087 308.324 194.601 285.366 206.969 280.93C219.334 276.494 223.624 276.333 234.147 280.188C244.672 284.043 299.631 305.917 310.03 309.727C320.433 313.54 320.833 316.681 310.16 322.243Z" fill="#C6302B"/>
<path d="M310.164 308.416C299.491 313.979 244.2 336.713 232.429 342.852C220.658 348.988 214.119 348.928 204.82 344.483C195.52 340.04 136.682 316.27 126.083 311.206C120.786 308.672 118 306.537 118 304.52V284.301C118 284.301 194.602 267.627 206.968 263.191C219.334 258.753 223.624 258.594 234.148 262.448C244.673 266.304 307.6 277.655 318 281.465L317.995 301.396C317.997 303.392 315.597 305.584 310.164 308.416Z" fill="#912626"/>
<path d="M310.16 288.32C299.487 293.883 244.198 316.617 232.427 322.753C220.656 328.889 214.117 328.829 204.819 324.386C195.521 319.941 136.683 296.172 126.085 291.107C115.486 286.043 115.265 282.555 125.675 278.477C136.086 274.401 194.601 251.445 206.968 247.008C219.334 242.571 223.624 242.412 234.147 246.267C244.671 250.123 299.631 271.997 310.03 275.807C320.433 279.616 320.832 282.758 310.16 288.32Z" fill="#C6302B"/>
<path d="M242.44 268.654L225.245 270.439L221.396 279.702L215.179 269.366L195.323 267.581L210.139 262.238L205.693 254.037L219.564 259.462L232.641 255.18L229.107 263.661L242.44 268.654ZM220.369 313.59L188.278 300.28L234.262 293.221L220.369 313.59ZM175.877 273.802C189.451 273.802 200.455 278.068 200.455 283.329C200.455 288.591 189.451 292.856 175.877 292.856C162.303 292.856 151.299 288.591 151.299 283.329C151.299 278.068 162.303 273.802 175.877 273.802Z" fill="white"/>
<path d="M262.762 271.186L289.977 281.941L262.785 292.685L262.762 271.186Z" fill="#621B1C"/>
<path d="M232.652 283.096L262.762 271.186L262.785 292.685L259.833 293.84L232.652 283.096Z" fill="#9A2928"/>
<path d="M52.7148 106.637H81.2854" stroke="#1A2C44" stroke-width="10.0601" stroke-linecap="round"/>
<mask id="path-11-inside-1_226_739" fill="white">
<rect width="134" height="134" rx="10.8649"/>
</mask>
<rect width="134" height="134" rx="10.8649" stroke="#1A2C44" stroke-width="28.5706" mask="url(#path-11-inside-1_226_739)"/>
<rect x="39.1306" y="39.1306" width="56.7387" height="47.7387" rx="5.13063" stroke="#1A2C44" stroke-width="10.2613"/>
<path d="M354.715 106.637H383.285" stroke="#1A2C44" stroke-width="10.0601" stroke-linecap="round"/>
<mask id="path-14-inside-2_226_739" fill="white">
<rect x="302" width="134" height="134" rx="10.8649"/>
</mask>
<rect x="302" width="134" height="134" rx="10.8649" stroke="#1A2C44" stroke-width="28.5706" mask="url(#path-14-inside-2_226_739)"/>
<rect x="341.131" y="39.1306" width="56.7387" height="47.7387" rx="5.13063" stroke="#1A2C44" stroke-width="10.2613"/>
<path fill-rule="evenodd" clip-rule="evenodd" d="M102.43 180.297L96.3709 176.94L132.13 231.509V223.456C132.13 220.463 134.556 218.037 137.549 218.037C140.541 218.037 142.967 220.463 142.967 223.456V251.244C142.967 256.033 137.825 259.063 133.636 256.742L108.319 242.717C105.701 241.267 104.754 237.969 106.205 235.352C107.655 232.734 110.952 231.787 113.57 233.237L118.86 236.168L83.8701 182.774V190.078C83.8701 193.071 81.4442 195.497 78.4516 195.497C75.4591 195.497 73.0332 193.071 73.0332 190.078V162.29C73.0332 157.501 78.1751 154.471 82.3644 156.792L107.682 170.817C110.299 172.267 111.246 175.565 109.796 178.183C108.346 180.8 105.048 181.747 102.43 180.297Z" fill="#1D2E42"/>
<path fill-rule="evenodd" clip-rule="evenodd" d="M333.1 180.199L339.142 176.873L303.381 231.101V223.094C303.381 220.102 300.955 217.676 297.962 217.676C294.97 217.676 292.544 220.102 292.544 223.094V250.73C292.544 255.512 297.672 258.543 301.86 256.237L327.205 242.285C329.826 240.842 330.782 237.547 329.339 234.925C327.896 232.303 324.6 231.348 321.979 232.791L316.704 235.695L351.698 182.63V189.896C351.698 192.888 354.124 195.314 357.117 195.314C360.109 195.314 362.535 192.888 362.535 189.896V162.26C362.535 157.478 357.408 154.448 353.219 156.754L327.874 170.705C325.253 172.149 324.297 175.444 325.74 178.065C327.184 180.687 330.479 181.642 333.1 180.199Z" fill="#1D2E42"/>
<path fill-rule="evenodd" clip-rule="evenodd" d="M192.274 55.446L186.282 58.6357L251.223 58.362L244.546 54.0533C242.032 52.4307 241.309 49.077 242.931 46.5626C244.554 44.0481 247.908 43.3252 250.422 44.9478L273.767 60.0128C277.797 62.6135 277.547 68.588 273.313 70.8421L247.895 84.3747C245.253 85.781 241.972 84.7797 240.565 82.1382C239.159 79.4967 240.16 76.2153 242.802 74.809L248.021 72.0301L184.48 72.2979L190.529 76.2017C193.044 77.8243 193.767 81.178 192.144 83.6924C190.521 86.2069 187.168 86.9298 184.653 85.3072L161.308 70.2422C157.278 67.6415 157.529 61.667 161.763 59.4129L187.181 45.8803C189.822 44.474 193.104 45.4753 194.51 48.1168C195.916 50.7583 194.915 54.0397 192.274 55.446Z" fill="#1D2E42"/>
</svg>
