<svg width="2046" height="2030" viewBox="0 0 2046 2030" fill="none" xmlns="http://www.w3.org/2000/svg">
<path d="M262 530H404" stroke="#1A2C44" stroke-width="50" stroke-linecap="round"/>
<mask id="path-2-inside-1_226_740" fill="white">
<rect width="666" height="666" rx="54"/>
</mask>
<rect width="666" height="666" rx="54" stroke="#1A2C44" stroke-width="142" mask="url(#path-2-inside-1_226_740)"/>
<rect x="192.5" y="192.5" width="281" height="238" rx="25.5" stroke="#1A2C44" stroke-width="51"/>
<path d="M1642 530H1784" stroke="#1A2C44" stroke-width="50" stroke-linecap="round"/>
<mask id="path-5-inside-2_226_740" fill="white">
<rect x="1380" width="666" height="666" rx="54"/>
</mask>
<rect x="1380" width="666" height="666" rx="54" stroke="#1A2C44" stroke-width="142" mask="url(#path-5-inside-2_226_740)"/>
<rect x="1572.5" y="192.5" width="281" height="238" rx="25.5" stroke="#1A2C44" stroke-width="51"/>
<path fill-rule="evenodd" clip-rule="evenodd" d="M479.829 862.07L452.474 846.823L616 1097.9V1061.23C616 1047.43 627.193 1036.23 641 1036.23C654.807 1036.23 666 1047.43 666 1061.23V1189.42C666 1211.55 642.211 1225.53 622.881 1214.76L506.829 1150.07C494.768 1143.35 490.441 1128.12 497.163 1116.06C503.885 1104 519.111 1099.67 531.171 1106.4L555.003 1119.68L395 874.015V907.233C395 921.04 383.807 932.233 370 932.233C356.193 932.233 345 921.04 345 907.233V779.042C345 756.912 368.789 742.937 388.119 753.711L504.171 818.396C516.232 825.118 520.559 840.344 513.837 852.404C507.115 864.465 491.889 868.792 479.829 862.07Z" fill="#1D2E42"/>
<path fill-rule="evenodd" clip-rule="evenodd" d="M1565.17 862.07L1592.53 846.823L1429 1097.9V1061.23C1429 1047.43 1417.81 1036.23 1404 1036.23C1390.19 1036.23 1379 1047.43 1379 1061.23V1189.42C1379 1211.55 1402.79 1225.53 1422.12 1214.76L1538.17 1150.07C1550.23 1143.35 1554.56 1128.12 1547.84 1116.06C1541.11 1104 1525.89 1099.67 1513.83 1106.4L1490 1119.68L1650 874.015V907.233C1650 921.04 1661.19 932.233 1675 932.233C1688.81 932.233 1700 921.04 1700 907.233V779.042C1700 756.912 1676.21 742.937 1656.88 753.711L1540.83 818.396C1528.77 825.118 1524.44 840.344 1531.16 852.404C1537.89 864.465 1553.11 868.792 1565.17 862.07Z" fill="#1D2E42"/>
<path fill-rule="evenodd" clip-rule="evenodd" d="M906.136 266.211L878.533 280.999L1178.16 278.965L1147.3 259.165C1135.68 251.709 1132.3 236.244 1139.76 224.623C1147.22 213.003 1162.68 209.627 1174.3 217.084L1282.19 286.315C1300.82 298.266 1299.73 325.835 1280.22 336.285L1163.11 399.024C1150.94 405.544 1135.79 400.963 1129.27 388.792C1122.75 376.622 1127.33 361.47 1139.5 354.95L1163.55 342.066L870.376 344.056L898.335 361.996C909.955 369.453 913.33 384.918 905.874 396.538C898.417 408.159 882.952 411.534 871.332 404.077L763.442 334.847C744.817 322.895 745.903 295.327 765.41 284.877L882.526 222.137C894.697 215.617 909.848 220.198 916.368 232.369C922.888 244.54 918.307 259.691 906.136 266.211Z" fill="#1D2E42"/>
<path d="M1454.33 1777.51C1404.38 1803.55 1145.62 1909.94 1090.53 1938.66C1035.44 1967.38 1004.84 1967.11 961.315 1946.3C917.799 1925.5 642.432 1814.27 592.828 1790.56C568.038 1778.71 555 1768.71 555 1759.26V1664.65C555 1664.65 913.495 1586.61 971.37 1565.84C1029.24 1545.08 1049.32 1544.33 1098.57 1562.37C1147.83 1580.42 1442.32 1633.55 1491 1651.38L1490.98 1744.65C1490.99 1754 1479.75 1764.26 1454.33 1777.51Z" fill="#912626"/>
<path d="M1454.31 1683.46C1404.36 1709.49 1145.61 1815.88 1090.52 1844.6C1035.43 1873.33 1004.83 1873.04 961.315 1852.24C917.794 1831.45 642.438 1720.2 592.838 1696.51C543.237 1672.8 542.199 1656.48 590.922 1637.4C639.645 1618.31 913.491 1510.87 971.373 1490.11C1029.24 1469.35 1049.32 1468.6 1098.57 1486.64C1147.82 1504.68 1405.03 1607.06 1453.7 1624.89C1502.39 1642.73 1504.26 1657.43 1454.31 1683.46Z" fill="#C6302B"/>
<path d="M1454.33 1624.43C1404.38 1650.47 1145.62 1756.86 1090.53 1785.59C1035.44 1814.3 1004.84 1814.02 961.315 1793.22C917.795 1772.42 642.432 1661.18 592.828 1637.47C568.038 1625.63 555 1615.64 555 1606.19V1511.57C555 1511.57 913.495 1433.53 971.37 1412.76C1029.24 1392 1049.32 1391.25 1098.57 1409.29C1147.83 1427.33 1442.33 1480.45 1491 1498.29L1490.98 1591.57C1490.99 1600.92 1479.75 1611.18 1454.33 1624.43Z" fill="#912626"/>
<path d="M1454.31 1530.38C1404.36 1556.41 1145.61 1662.8 1090.52 1691.53C1035.43 1720.24 1004.83 1719.96 961.315 1699.16C917.794 1678.37 642.438 1567.12 592.838 1543.42C543.237 1519.72 542.199 1503.4 590.922 1484.31C639.645 1465.24 913.495 1357.79 971.373 1337.03C1029.24 1316.27 1049.32 1315.52 1098.57 1333.56C1147.82 1351.6 1405.03 1453.97 1453.7 1471.8C1502.39 1489.65 1504.26 1504.34 1454.31 1530.38Z" fill="#C6302B"/>
<path d="M1454.33 1465.67C1404.38 1491.7 1145.62 1598.1 1090.53 1626.83C1035.44 1655.55 1004.84 1655.26 961.315 1634.46C917.795 1613.67 642.432 1502.42 592.828 1478.72C568.038 1466.86 555 1456.87 555 1447.43V1352.81C555 1352.81 913.495 1274.77 971.37 1254.01C1029.24 1233.24 1049.32 1232.5 1098.57 1250.54C1147.83 1268.58 1442.33 1321.7 1491 1339.54L1490.98 1432.81C1490.99 1442.16 1479.75 1452.41 1454.33 1465.67Z" fill="#912626"/>
<path d="M1454.31 1371.62C1404.36 1397.65 1145.61 1504.05 1090.52 1532.76C1035.43 1561.48 1004.83 1561.2 961.315 1540.41C917.798 1519.6 642.439 1408.36 592.841 1384.66C543.237 1360.96 542.202 1344.64 590.922 1325.55C639.645 1306.48 913.495 1199.04 971.373 1178.28C1029.24 1157.51 1049.32 1156.77 1098.57 1174.81C1147.82 1192.85 1405.03 1295.23 1453.7 1313.06C1502.39 1330.88 1504.26 1345.59 1454.31 1371.62Z" fill="#C6302B"/>
<path d="M1137.38 1279.58L1056.9 1287.93L1038.89 1331.28L1009.79 1282.91L916.869 1274.56L986.206 1249.56L965.402 1211.17L1030.32 1236.56L1091.52 1216.52L1074.98 1256.21L1137.38 1279.58ZM1034.09 1489.88L883.897 1427.59L1099.1 1394.55L1034.09 1489.88ZM825.862 1303.67C889.389 1303.67 940.887 1323.64 940.887 1348.26C940.887 1372.89 889.389 1392.85 825.862 1392.85C762.334 1392.85 710.836 1372.88 710.836 1348.26C710.836 1323.64 762.334 1303.67 825.862 1303.67Z" fill="white"/>
<path d="M1232.48 1291.43L1359.85 1341.76L1232.59 1392.05L1232.48 1291.43Z" fill="#621B1C"/>
<path d="M1091.57 1347.17L1232.48 1291.43L1232.59 1392.05L1218.78 1397.45L1091.57 1347.17Z" fill="#9A2928"/>
</svg>
